<?xml version="1.0" encoding="UTF-8"?>
<!DOCTYPE svg PUBLIC "-//W3C//DTD SVG 1.1//EN" "http://www.w3.org/Graphics/SVG/1.1/DTD/svg11.dtd">
<svg xmlns="http://www.w3.org/2000/svg" version="1.1" width="840px" height="840px" style="shape-rendering:geometricPrecision; text-rendering:geometricPrecision; image-rendering:optimizeQuality; fill-rule:evenodd; clip-rule:evenodd" xmlns:xlink="http://www.w3.org/1999/xlink">
<g><path style="opacity:1" fill="#fdfdfd" d="M 594.5,4.5 C 646.964,0.8213 684.131,22.8213 706,70.5C 711.199,83.4939 713.699,96.9939 713.5,111C 712.691,118.16 712.524,125.327 713,132.5C 734.651,152.456 747.985,177.123 753,206.5C 759.645,260.238 743.478,305.738 704.5,343C 682.973,361.263 658.306,373.43 630.5,379.5C 640.887,389.38 649.554,400.547 656.5,413C 680.227,409.461 701.56,415.128 720.5,430C 754.285,460.299 764.118,497.132 750,540.5C 743.491,556.86 733.991,571.194 721.5,583.5C 740.359,612.855 743.359,643.689 730.5,676C 731.847,682.488 731.681,688.988 730,695.5C 725.692,709.783 719.026,722.783 710,734.5C 687.064,759.751 659.897,779.251 628.5,793C 546.889,827.137 461.889,840.803 373.5,834C 314.039,830.801 256.706,818.134 201.5,796C 189.5,790 177.5,784 165.5,778C 139.57,763.74 118.404,744.24 102,719.5C 95.2318,708.195 91.0651,696.028 89.5,683C 89.6301,679.975 89.9634,676.975 90.5,674C 82.377,650.447 82.5437,626.947 91,603.5C 99.8964,582.552 113.063,564.719 130.5,550C 141.311,541.426 152.644,533.593 164.5,526.5C 135.194,469.198 143.86,418.365 190.5,374C 217.922,351.453 248.922,335.453 283.5,326C 301.245,320.896 319.245,317.063 337.5,314.5C 339.777,286.836 345.277,259.836 354,233.5C 359.299,220.899 365.633,208.899 373,197.5C 377.545,137.725 405.045,92.2245 455.5,61C 479.792,47.782 505.792,41.9487 533.5,43.5C 539.642,32.8576 547.976,24.3576 558.5,18C 569.912,11.5894 581.912,7.08942 594.5,4.5 Z"/></g>
<g><path style="opacity:1" fill="#aa653c" d="M 663.5,67.5 C 634.241,44.5767 605.241,44.91 576.5,68.5C 579.09,64.4048 582.256,60.7382 586,57.5C 586.49,56.2068 586.657,54.8734 586.5,53.5C 583.09,53.4571 579.757,53.9571 576.5,55C 572.896,57.3014 569.229,58.468 565.5,58.5C 573.309,48.2561 583.642,42.0895 596.5,40C 624.499,36.0394 646.833,45.2061 663.5,67.5 Z"/></g>
<g><path style="opacity:1" fill="#321008" d="M 663.5,67.5 C 673.552,80.0256 678.218,94.359 677.5,110.5C 677.688,118.937 676.855,127.27 675,135.5C 674.167,136.5 673.333,137.5 672.5,138.5C 664.221,133.193 655.221,129.859 645.5,128.5C 647.408,118.927 647.908,109.26 647,99.5C 640.72,76.1153 625.887,67.282 602.5,73C 591.524,79.141 584.524,88.3077 581.5,100.5C 575.993,95.4929 570.66,90.3262 565.5,85C 568.068,78.6765 571.735,73.1765 576.5,68.5C 605.241,44.91 634.241,44.5767 663.5,67.5 Z"/></g>
<g><path style="opacity:1" fill="#310f07" d="M 642.5,448.5 C 644.398,447.904 646.065,447.904 647.5,448.5C 644.76,453.782 643.093,459.449 642.5,465.5C 662.818,460.2 681.318,464.2 698,477.5C 696.405,467.809 692.238,459.309 685.5,452C 686.094,451.536 686.761,451.369 687.5,451.5C 718.211,469.447 727.711,495.447 716,529.5C 706.33,551.242 690.497,566.575 668.5,575.5C 668.351,576.552 668.517,577.552 669,578.5C 713.92,616.561 714.753,655.394 671.5,695C 648.38,712.123 623.38,725.79 596.5,736C 549.271,752.546 500.604,762.379 450.5,765.5C 449.022,765.762 447.689,765.429 446.5,764.5C 444.586,760.238 442.586,756.071 440.5,752C 399.213,755.059 358.546,751.393 318.5,741C 305.309,736.986 292.809,731.486 281,724.5C 280.312,723.668 280.479,723.002 281.5,722.5C 308.49,728.832 335.824,731.499 363.5,730.5C 324.389,724.597 288.723,710.431 256.5,688C 247.626,679.794 239.459,670.96 232,661.5C 225.369,650.772 221.869,639.106 221.5,626.5C 215.373,629.632 209.04,630.132 202.5,628C 182.132,620.656 163.799,609.989 147.5,596C 143.556,595.01 139.889,595.51 136.5,597.5C 135.893,597.376 135.56,597.043 135.5,596.5C 152.507,575.997 173.174,560.331 197.5,549.5C 198.647,549.818 199.481,550.484 200,551.5C 217.35,606.169 249.85,649.336 297.5,681C 339.243,705.241 384.243,714.574 432.5,709C 438.819,707.834 445.152,706.667 451.5,705.5C 465.798,703.51 479.465,699.51 492.5,693.5C 474.973,692.096 458.307,687.596 442.5,680C 440.208,678.71 438.208,677.043 436.5,675C 454.71,674.317 471.71,669.484 487.5,660.5C 436.595,656.88 394.595,636.047 361.5,598C 356.789,593.62 351.789,589.62 346.5,586C 340.736,582.784 334.736,580.117 328.5,578C 313.146,573.829 297.813,569.662 282.5,565.5C 255.661,556.49 231.328,542.99 209.5,525C 184.125,499.911 176.958,470.411 188,436.5C 198.464,415.386 213.631,398.552 233.5,386C 267.526,366.324 304.193,353.991 343.5,349C 352.496,348.012 361.496,347.178 370.5,346.5C 371.847,320.285 375.014,294.285 380,268.5C 384.762,246.839 394.095,227.505 408,210.5C 408.589,157.8 431.089,117.634 475.5,90C 495.6,80.2612 516.6,77.5945 538.5,82C 553.478,87.3083 565.978,96.1417 576,108.5C 584.112,122.273 595.945,131.107 611.5,135C 629.238,137.592 646.905,140.592 664.5,144C 687.683,153.455 703.849,169.955 713,193.5C 727.437,244.012 714.937,286.512 675.5,321C 638.82,347.334 599.153,352.667 556.5,337C 548.869,333.184 541.536,328.851 534.5,324C 522.5,311.667 510.5,299.333 498.5,287C 472.639,274.844 452.472,281.011 438,305.5C 432.289,318.554 429.456,332.221 429.5,346.5C 480.575,347.519 528.908,359.352 574.5,382C 598.386,394.886 616.553,413.386 629,437.5C 630.684,441.716 631.851,446.049 632.5,450.5C 635.903,450.149 639.237,449.482 642.5,448.5 Z"/></g>
<g><path style="opacity:1" fill="#fcfbfb" d="M 512.5,475.5 C 511.662,475.158 511.328,474.492 511.5,473.5C 514.208,470.256 514.875,466.589 513.5,462.5C 512.478,462.855 511.811,463.522 511.5,464.5C 492.452,478.227 471.118,486.06 447.5,488C 422.357,490.391 397.69,488.058 373.5,481C 354.982,475.163 340.148,464.329 329,448.5C 320.336,433.518 320.336,418.518 329,403.5C 338.721,389.276 351.555,378.943 367.5,372.5C 367.478,382.239 366.645,391.906 365,401.5C 364.333,412.167 364.333,422.833 365,433.5C 367.641,438.641 371.474,442.641 376.5,445.5C 380.361,387.224 386.527,329.224 395,271.5C 402.328,243.013 417.161,219.18 439.5,200C 477.03,169.385 520.03,155.885 568.5,159.5C 564.553,188.299 550.219,210.466 525.5,226C 509.923,233.95 493.59,239.95 476.5,244C 450.675,253.825 432.842,271.658 423,297.5C 419.859,306.629 417.525,315.962 416,325.5C 409.974,368.642 405.141,411.975 401.5,455.5C 405.615,456.095 409.615,457.095 413.5,458.5C 413.786,451.112 414.62,443.779 416,436.5C 423.04,447.546 432.874,454.713 445.5,458C 459.438,461.061 472.771,459.395 485.5,453C 496.45,442.938 496.117,433.272 484.5,424C 474.58,419.233 464.246,418.233 453.5,421C 451.843,423.338 449.676,424.838 447,425.5C 444.68,425.2 443.513,423.867 443.5,421.5C 446.272,415.572 450.938,412.072 457.5,411C 477.126,407.858 495.126,411.858 511.5,423C 525.966,436.023 528.466,451.189 519,468.5C 517.334,471.331 515.168,473.664 512.5,475.5 Z"/></g>
<g><path style="opacity:1" fill="#a96238" d="M 558.5,221.5 C 586.07,244.538 615.736,264.705 647.5,282C 649.325,283.466 649.825,285.299 649,287.5C 627.139,309.452 600.972,317.285 570.5,311C 558.498,307.324 548.331,300.824 540,291.5C 533.698,280.723 525.864,271.223 516.5,263C 512.334,260.083 508.001,257.416 503.5,255C 525.432,249.384 543.765,238.217 558.5,221.5 Z"/></g>
<g><path style="opacity:1" fill="#aa6339" d="M 367.5,372.5 C 351.555,378.943 338.721,389.276 329,403.5C 320.336,418.518 320.336,433.518 329,448.5C 340.148,464.329 354.982,475.163 373.5,481C 397.69,488.058 422.357,490.391 447.5,488C 471.118,486.06 492.452,478.227 511.5,464.5C 512.497,464.47 513.164,464.97 513.5,466C 512.521,468.433 511.855,470.933 511.5,473.5C 511.328,474.492 511.662,475.158 512.5,475.5C 508.461,480.54 503.794,484.873 498.5,488.5C 497.399,487.402 496.066,487.235 494.5,488C 477.4,497.525 459.067,502.859 439.5,504C 397.384,507.75 356.717,502.416 317.5,488C 316.167,487.333 314.833,487.333 313.5,488C 326.905,498.537 341.905,506.204 358.5,511C 424.231,528.92 486.564,521.42 545.5,488.5C 545.833,488.667 546.167,488.833 546.5,489C 539.387,499.113 530.387,507.113 519.5,513C 506.44,519.402 493.107,524.902 479.5,529.5C 473.885,530.82 468.218,531.986 462.5,533C 466.689,533.812 470.689,533.645 474.5,532.5C 490.183,532.389 505.183,529.389 519.5,523.5C 543.213,523.376 565.213,516.876 585.5,504C 608.258,486.957 613.092,465.791 600,440.5C 591.842,429.043 582.009,419.21 570.5,411C 554.5,402.333 538.5,393.667 522.5,385C 553.577,390.08 580.077,403.913 602,426.5C 617.448,444.24 621.281,464.24 613.5,486.5C 613.624,487.107 613.957,487.44 614.5,487.5C 598.06,504.406 579.06,517.906 557.5,528C 507.45,548.427 455.284,557.927 401,556.5C 358.842,555.001 317.675,547.835 277.5,535C 257.777,527.136 239.111,517.136 221.5,505C 215.135,499.159 208.801,493.326 202.5,487.5C 203.239,487.631 203.906,487.464 204.5,487C 195.191,465.494 198.025,445.66 213,427.5C 228.145,411.502 245.979,399.335 266.5,391C 298.979,377.616 332.645,368.95 367.5,365C 368.022,365.561 368.355,366.228 368.5,367C 367.767,368.766 367.433,370.599 367.5,372.5 Z"/></g>
<g><path style="opacity:1" fill="#faf7f5" d="M 519.5,523.5 C 505.183,529.389 490.183,532.389 474.5,532.5C 476.072,531.313 477.739,530.313 479.5,529.5C 493.107,524.902 506.44,519.402 519.5,513C 530.387,507.113 539.387,499.113 546.5,489C 546.167,488.833 545.833,488.667 545.5,488.5C 486.564,521.42 424.231,528.92 358.5,511C 341.905,506.204 326.905,498.537 313.5,488C 314.833,487.333 316.167,487.333 317.5,488C 356.717,502.416 397.384,507.75 439.5,504C 459.067,502.859 477.4,497.525 494.5,488C 496.066,487.235 497.399,487.402 498.5,488.5C 497.957,488.56 497.624,488.893 497.5,489.5C 512.446,489.796 526.446,486.296 539.5,479C 557.205,467.11 560.372,451.943 549,433.5C 547.859,431.391 546.359,429.558 544.5,428C 558.522,434.022 568.689,444.188 575,458.5C 577.397,470.607 575.064,481.607 568,491.5C 554.057,505.623 537.89,516.29 519.5,523.5 Z"/></g>
<g><path style="opacity:1" fill="#fbd6b2" d="M 252.5,446.5 C 251.883,446.389 251.383,446.056 251,445.5C 250.722,446.416 250.222,447.082 249.5,447.5C 251.332,436.695 252.332,436.362 252.5,446.5 Z"/></g>
<g><path style="opacity:1" fill="#faf6f3" d="M 252.5,446.5 C 254.973,467.082 263.973,484.249 279.5,498C 287.736,504.279 296.403,509.779 305.5,514.5C 285.7,512.348 269.2,503.681 256,488.5C 254.834,485.497 253.167,482.83 251,480.5C 247.63,470.79 246.63,460.79 248,450.5C 248.232,449.263 248.732,448.263 249.5,447.5C 250.222,447.082 250.722,446.416 251,445.5C 251.383,446.056 251.883,446.389 252.5,446.5 Z"/></g>
<g><path style="opacity:1" fill="#9e8d79" d="M 647.5,448.5 C 646.065,447.904 644.398,447.904 642.5,448.5C 644.201,446.577 646.201,446.243 648.5,447.5C 648.376,448.107 648.043,448.44 647.5,448.5 Z"/></g>
<g><path style="opacity:1" fill="#ac6840" d="M 687.5,451.5 C 686.761,451.369 686.094,451.536 685.5,452C 692.238,459.309 696.405,467.809 698,477.5C 681.318,464.2 662.818,460.2 642.5,465.5C 653.299,459.924 664.632,458.924 676.5,462.5C 677.583,460.208 677.583,457.875 676.5,455.5C 675,452.258 673.334,449.258 671.5,446.5C 677.169,447.374 682.502,449.041 687.5,451.5 Z"/></g>
<g><path style="opacity:1" fill="#c1a890" d="M 511.5,473.5 C 511.855,470.933 512.521,468.433 513.5,466C 513.164,464.97 512.497,464.47 511.5,464.5C 511.811,463.522 512.478,462.855 513.5,462.5C 514.875,466.589 514.208,470.256 511.5,473.5 Z"/></g>
<g><path style="opacity:1" fill="#f9f6f4" d="M 202.5,487.5 C 208.801,493.326 215.135,499.159 221.5,505C 239.111,517.136 257.777,527.136 277.5,535C 317.675,547.835 358.842,555.001 401,556.5C 455.284,557.927 507.45,548.427 557.5,528C 579.06,517.906 598.06,504.406 614.5,487.5C 616.148,485.571 617.815,483.571 619.5,481.5C 619.833,481.833 620.167,482.167 620.5,482.5C 614.815,497 605.815,509.167 593.5,519C 569.028,536.732 542.028,549.399 512.5,557C 434.074,575.868 356.407,573.201 279.5,549C 251.103,539.281 226.27,523.781 205,502.5C 199.335,495.337 194.835,487.503 191.5,479C 192.167,478.333 192.833,478.333 193.5,479C 196.067,482.285 199.067,485.118 202.5,487.5 Z"/></g>
<g><path style="opacity:1" fill="#fcfbfb" d="M 630.5,554.5 C 626.59,554.737 622.923,553.904 619.5,552C 618.748,551.329 618.414,550.496 618.5,549.5C 623.588,530.728 627.754,511.728 631,492.5C 642.476,483.538 655.309,480.705 669.5,484C 686.386,493.16 690.219,506.327 681,523.5C 671.118,536.701 658.284,545.867 642.5,551C 638.553,552.484 634.553,553.65 630.5,554.5 Z"/></g>
<g><path style="opacity:1" fill="#f4c89f" d="M 479.5,529.5 C 477.739,530.313 476.072,531.313 474.5,532.5C 470.689,533.645 466.689,533.812 462.5,533C 468.218,531.986 473.885,530.82 479.5,529.5 Z"/></g>
<g><path style="opacity:1" fill="#c28b71" d="M 618.5,549.5 C 618.414,550.496 618.748,551.329 619.5,552C 622.923,553.904 626.59,554.737 630.5,554.5C 625.638,556.636 620.638,557.636 615.5,557.5C 616.516,554.718 617.516,552.051 618.5,549.5 Z"/></g>
<g><path style="opacity:1" fill="#aa6339" d="M 282.5,565.5 C 297.813,569.662 313.146,573.829 328.5,578C 334.736,580.117 340.736,582.784 346.5,586C 351.789,589.62 356.789,593.62 361.5,598C 394.595,636.047 436.595,656.88 487.5,660.5C 471.71,669.484 454.71,674.317 436.5,675C 438.208,677.043 440.208,678.71 442.5,680C 458.307,687.596 474.973,692.096 492.5,693.5C 479.465,699.51 465.798,703.51 451.5,705.5C 389.213,699.01 340.713,669.677 306,617.5C 295.967,601.265 288.134,583.931 282.5,565.5 Z"/></g>
<g><path style="opacity:1" fill="#f6f5f4" d="M 664.5,577.5 C 666.225,577.843 666.725,578.843 666,580.5C 662.273,588.123 657.439,594.956 651.5,601C 648.629,602.935 645.629,604.601 642.5,606C 626.052,609.973 609.386,611.973 592.5,612C 594.712,609.079 596.545,605.912 598,602.5C 608.077,599.438 618.243,596.605 628.5,594C 640.918,589.289 652.918,583.789 664.5,577.5 Z"/></g>
<g><path style="opacity:1" fill="#aa6339" d="M 450.5,765.5 C 448.708,766.309 446.708,766.809 444.5,767C 418.818,767.796 393.151,767.463 367.5,766C 345.212,762.922 322.878,759.922 300.5,757C 290.343,753.938 280.009,751.604 269.5,750C 255.08,744.973 240.413,740.306 225.5,736C 202.151,727.325 180.151,715.991 159.5,702C 148.685,693.685 139.019,684.185 130.5,673.5C 114.371,646.567 116.037,620.901 135.5,596.5C 135.56,597.043 135.893,597.376 136.5,597.5C 139.889,595.51 143.556,595.01 147.5,596C 163.799,609.989 182.132,620.656 202.5,628C 209.04,630.132 215.373,629.632 221.5,626.5C 221.869,639.106 225.369,650.772 232,661.5C 239.459,670.96 247.626,679.794 256.5,688C 288.723,710.431 324.389,724.597 363.5,730.5C 335.824,731.499 308.49,728.832 281.5,722.5C 280.479,723.002 280.312,723.668 281,724.5C 292.809,731.486 305.309,736.986 318.5,741C 358.546,751.393 399.213,755.059 440.5,752C 442.586,756.071 444.586,760.238 446.5,764.5C 447.689,765.429 449.022,765.762 450.5,765.5 Z"/></g>
<g><path style="opacity:1" fill="#33120b" d="M 124.5,681.5 C 133.972,694.472 145.306,705.638 158.5,715C 194.648,739.168 233.981,756.168 276.5,766C 369.722,787.25 462.722,786.583 555.5,764C 588.934,754.748 620.601,741.414 650.5,724C 668.154,712.475 683.487,698.975 696.5,683.5C 692.403,697.856 685.069,710.356 674.5,721C 669.5,725.333 664.5,729.667 659.5,734C 630.552,753.806 599.219,768.806 565.5,779C 498.06,797.454 429.394,803.788 359.5,798C 310.884,793.733 263.884,782.733 218.5,765C 195.788,755.481 174.788,743.148 155.5,728C 140.43,715.471 130.097,699.971 124.5,681.5 Z"/></g>
</svg>
